<svg width="24" height="24" viewBox="0 0 24 24" fill="none" xmlns="http://www.w3.org/2000/svg">
<path d="M11.9903 19.5154C11.7846 19.5154 11.5817 19.479 11.3817 19.4062C11.1817 19.3335 11.0038 19.2218 10.848 19.0711L9.53268 17.874C7.72946 16.2388 6.1402 14.6481 4.76488 13.1019C3.38956 11.5558 2.7019 9.91116 2.7019 8.16811C2.7019 6.78976 3.1673 5.63575 4.09808 4.70608C5.02886 3.77642 6.18426 3.31158 7.56428 3.31158C8.34665 3.31158 9.12639 3.4962 9.9035 3.86543C10.6806 4.23467 11.3794 4.84653 12 5.70103C12.6339 4.84653 13.3357 4.23467 14.1053 3.86543C14.8749 3.4962 15.6534 3.31158 16.4407 3.31158C17.8188 3.31158 18.9729 3.77642 19.9029 4.70608C20.833 5.63575 21.298 6.78976 21.298 8.16811C21.298 9.93039 20.5964 11.5923 19.1932 13.1538C17.79 14.7154 16.2147 16.2872 14.4672 17.8692L13.1463 19.0716C12.9878 19.2219 12.807 19.3335 12.6038 19.4062C12.4006 19.479 12.1961 19.5154 11.9903 19.5154ZM11.3281 7.15718C10.8311 6.32612 10.2714 5.71058 9.649 5.31058C9.02655 4.91058 8.32874 4.71058 7.55555 4.71058C6.56852 4.71058 5.74599 5.03847 5.08795 5.69423C4.42992 6.35 4.1009 7.17369 4.1009 8.16531C4.1009 8.96058 4.3562 9.79193 4.86678 10.6594C5.37735 11.5268 6.0166 12.3891 6.78453 13.2461C7.55248 14.1032 8.3855 14.9407 9.28358 15.7586C10.1816 16.5766 11.0198 17.3359 11.798 18.0365C11.8557 18.0878 11.923 18.1135 12 18.1135C12.0769 18.1135 12.1442 18.0878 12.2019 18.0365C12.9801 17.3359 13.8183 16.5766 14.7163 15.7586C15.6144 14.9407 16.4474 14.1032 17.2154 13.2461C17.9833 12.3891 18.6226 11.5268 19.1331 10.6594C19.6437 9.79193 19.899 8.96058 19.899 8.16531C19.899 7.17369 19.57 6.35 18.912 5.69423C18.2539 5.03847 17.4314 4.71058 16.4444 4.71058C15.6712 4.71058 14.9721 4.91058 14.3471 5.31058C13.7221 5.71058 13.1611 6.32612 12.6642 7.15718C12.5861 7.28703 12.4875 7.38193 12.3685 7.44186C12.2494 7.50179 12.1257 7.53176 11.9974 7.53176C11.869 7.53176 11.7437 7.50179 11.6214 7.44186C11.4992 7.38193 11.4014 7.28703 11.3281 7.15718Z" fill="#AFAFAF"/>
</svg>
